<svg xmlns="http://www.w3.org/2000/svg" xmlns:xlink="http://www.w3.org/1999/xlink" width="150" zoomAndPan="magnify" viewBox="0 0 112.5 37.5" height="50" preserveAspectRatio="xMidYMid meet" version="1.0"><defs><g/><clipPath id="27aa9524df"><path d="M 0.195312 0.714844 L 23.683594 0.714844 L 23.683594 32.460938 L 0.195312 32.460938 Z M 0.195312 0.714844 " clip-rule="nonzero"/></clipPath><clipPath id="2e0876534a"><path d="M 5 0.714844 L 23 0.714844 L 23 15 L 5 15 Z M 5 0.714844 " clip-rule="nonzero"/></clipPath><clipPath id="5def3620d0"><path d="M 0.195312 4 L 23.683594 4 L 23.683594 32.460938 L 0.195312 32.460938 Z M 0.195312 4 " clip-rule="nonzero"/></clipPath><clipPath id="1a54037a92"><path d="M 0.195312 25.640625 L 13.050781 25.640625 L 13.050781 32.460938 L 0.195312 32.460938 Z M 0.195312 25.640625 " clip-rule="nonzero"/></clipPath><clipPath id="517712d726"><path d="M 0.195312 0.640625 L 13.050781 0.640625 L 13.050781 7.460938 L 0.195312 7.460938 Z M 0.195312 0.640625 " clip-rule="nonzero"/></clipPath><clipPath id="3d52c4811c"><rect x="0" width="14" y="0" height="8"/></clipPath><clipPath id="d81f9f8549"><rect x="0" width="24" y="0" height="33"/></clipPath><clipPath id="9442927549"><path d="M 26 3 L 78 3 L 78 37.007812 L 26 37.007812 Z M 26 3 " clip-rule="nonzero"/></clipPath><clipPath id="9f0e5f5d5d"><rect x="0" width="52" y="0" height="35"/></clipPath><clipPath id="a9cf3ef2c5"><path d="M 82 0 L 109 0 L 109 37.007812 L 82 37.007812 Z M 82 0 " clip-rule="nonzero"/></clipPath><clipPath id="7af20301fe"><path d="M 21 26 L 26.96875 26 L 26.96875 33 L 21 33 Z M 21 26 " clip-rule="nonzero"/></clipPath><clipPath id="29a236e853"><rect x="0" width="27" y="0" height="38"/></clipPath></defs><g transform="matrix(1, 0, 0, 1, 4, 2)"><g clip-path="url(#d81f9f8549)"><g clip-path="url(#27aa9524df)"><path fill="#b1060f" d="M 21.640625 17.476562 C 21.125 16.910156 20.527344 16.417969 19.867188 15.996094 C 21.589844 14.5 22.628906 12.417969 22.628906 9.789062 C 22.628906 4.304688 18.144531 0.722656 12.613281 0.722656 L 5.203125 0.722656 C 2.4375 0.722656 0.195312 2.964844 0.195312 5.730469 L 0.195312 32.449219 L 1.726562 32.449219 C 4.886719 32.449219 7.445312 29.890625 7.445312 26.730469 L 7.445312 21.386719 C 7.445312 21.148438 7.492188 20.917969 7.585938 20.695312 C 7.675781 20.472656 7.808594 20.277344 7.976562 20.109375 C 8.148438 19.9375 8.34375 19.808594 8.5625 19.714844 C 8.785156 19.625 9.015625 19.578125 9.257812 19.578125 L 13.519531 19.578125 C 15.335938 19.578125 16.511719 20.847656 16.511719 22.613281 C 16.511719 24.207031 15.554688 25.398438 14.039062 25.617188 C 13.867188 25.640625 13.695312 25.652344 13.519531 25.652344 L 9.234375 25.652344 L 9.234375 29.9375 C 9.234375 31.324219 10.359375 32.449219 11.75 32.449219 L 13.519531 32.449219 C 19.1875 32.449219 23.765625 28.78125 23.765625 23.160156 C 23.765625 20.84375 22.96875 18.929688 21.640625 17.476562 Z M 12.566406 13.140625 L 7.445312 13.140625 L 7.445312 8.722656 C 7.445312 8.5625 7.476562 8.410156 7.539062 8.261719 C 7.597656 8.113281 7.683594 7.984375 7.796875 7.871094 C 7.910156 7.761719 8.039062 7.671875 8.1875 7.613281 C 8.335938 7.550781 8.488281 7.519531 8.644531 7.519531 L 12.613281 7.519531 C 14.304688 7.519531 15.394531 8.71875 15.378906 10.367188 C 15.363281 11.90625 14.101562 13.140625 12.566406 13.140625 Z M 12.566406 13.140625 " fill-opacity="1" fill-rule="nonzero"/></g><g clip-path="url(#2e0876534a)"><path fill="#b1060f" d="M 15.375 10.210938 C 15.378906 10.265625 15.378906 10.316406 15.378906 10.367188 C 15.363281 11.90625 14.101562 13.140625 12.566406 13.140625 L 11.964844 13.140625 L 11.257812 14.546875 L 21.855469 13.398438 C 22.355469 12.339844 22.628906 11.136719 22.628906 9.789062 C 22.628906 4.304688 18.144531 0.722656 12.613281 0.722656 L 5.578125 0.722656 C 5.578125 0.722656 15.226562 3.632812 15.375 10.210938 Z M 15.375 10.210938 " fill-opacity="1" fill-rule="nonzero"/></g><g clip-path="url(#5def3620d0)"><path fill="#e50914" d="M 0.195312 32.449219 L 0.195312 20.335938 C 0.195312 20.335938 0.253906 13.140625 7.445312 13.140625 L 12.566406 13.140625 C 13.75 13.140625 20.640625 12.722656 20.640625 4.160156 C 21.890625 5.648438 22.628906 7.558594 22.628906 9.789062 C 22.628906 12.417969 21.589844 14.5 19.867188 15.996094 C 19.867188 15.996094 16.03125 19.578125 11.980469 19.578125 L 9.257812 19.578125 C 9.015625 19.578125 8.785156 19.625 8.5625 19.714844 C 8.34375 19.808594 8.144531 19.9375 7.976562 20.109375 C 7.808594 20.277344 7.675781 20.472656 7.585938 20.695312 C 7.492188 20.917969 7.445312 21.148438 7.445312 21.386719 L 7.445312 26.730469 C 7.445312 29.890625 4.886719 32.449219 1.726562 32.449219 Z M 21.640625 17.476562 C 21.640625 24.308594 16.921875 25.429688 14.035156 25.617188 C 13.484375 25.652344 13 25.652344 12.628906 25.652344 L 9.234375 25.652344 L 9.234375 29.933594 C 9.234375 31.324219 10.359375 32.449219 11.75 32.449219 L 13.519531 32.449219 C 19.1875 32.449219 23.765625 28.78125 23.765625 23.160156 C 23.765625 20.84375 22.96875 18.929688 21.640625 17.476562 Z M 21.640625 17.476562 " fill-opacity="1" fill-rule="nonzero"/></g><g clip-path="url(#1a54037a92)"><g transform="matrix(1, 0, 0, 1, 0, 25)"><g clip-path="url(#3d52c4811c)"><g clip-path="url(#517712d726)"><path fill="#e50914" d="M 0.195312 0.640625 L 13.054688 0.640625 L 13.054688 7.460938 L 0.195312 7.460938 Z M 0.195312 0.640625 " fill-opacity="1" fill-rule="nonzero"/></g></g></g></g></g></g><g clip-path="url(#9442927549)"><g transform="matrix(1, 0, 0, 1, 26, 3)"><g clip-path="url(#9f0e5f5d5d)"><g fill="#e50914" fill-opacity="1"><g transform="translate(0.97815, 30.118679)"><g><path d="M 6.4375 -14.609375 L 6.4375 -11.890625 C 7.488281 -13.804688 8.882812 -14.765625 10.625 -14.765625 L 10.625 -10.21875 L 9.53125 -10.21875 C 8.5 -10.21875 7.722656 -9.972656 7.203125 -9.484375 C 6.691406 -8.992188 6.4375 -8.132812 6.4375 -6.90625 L 6.4375 0 L 1.96875 0 L 1.96875 -14.609375 Z M 6.4375 -14.609375 "/></g></g></g><g fill="#e50914" fill-opacity="1"><g transform="translate(10.511878, 30.118679)"><g><path d="M 6.046875 -16.25 C 5.546875 -15.75 4.925781 -15.5 4.1875 -15.5 C 3.457031 -15.5 2.835938 -15.75 2.328125 -16.25 C 1.828125 -16.757812 1.578125 -17.382812 1.578125 -18.125 C 1.578125 -18.875 1.828125 -19.5 2.328125 -20 C 2.835938 -20.507812 3.457031 -20.765625 4.1875 -20.765625 C 4.925781 -20.765625 5.546875 -20.507812 6.046875 -20 C 6.554688 -19.5 6.8125 -18.875 6.8125 -18.125 C 6.8125 -17.382812 6.554688 -16.757812 6.046875 -16.25 Z M 1.96875 0 L 1.96875 -14.609375 L 6.4375 -14.609375 L 6.4375 0 Z M 1.96875 0 "/></g></g></g><g fill="#e50914" fill-opacity="1"><g transform="translate(17.347873, 30.118679)"><g><path d="M 10.875 -4.625 C 11.519531 -5.257812 11.84375 -6.148438 11.84375 -7.296875 C 11.84375 -8.453125 11.519531 -9.335938 10.875 -9.953125 C 10.226562 -10.578125 9.484375 -10.890625 8.640625 -10.890625 C 7.804688 -10.890625 7.066406 -10.578125 6.421875 -9.953125 C 5.773438 -9.328125 5.453125 -8.4375 5.453125 -7.28125 C 5.453125 -6.125 5.773438 -5.234375 6.421875 -4.609375 C 7.066406 -3.992188 7.804688 -3.6875 8.640625 -3.6875 C 9.484375 -3.6875 10.226562 -4 10.875 -4.625 Z M 2.828125 -1.90625 C 1.535156 -3.300781 0.890625 -5.085938 0.890625 -7.265625 C 0.890625 -9.453125 1.535156 -11.25 2.828125 -12.65625 C 4.117188 -14.0625 5.691406 -14.765625 7.546875 -14.765625 C 9.410156 -14.765625 10.84375 -14.078125 11.84375 -12.703125 L 11.84375 -14.609375 L 16.3125 -14.609375 L 16.3125 0 L 11.84375 0 L 11.84375 -2.125 C 10.757812 -0.582031 9.304688 0.1875 7.484375 0.1875 C 5.671875 0.1875 4.117188 -0.507812 2.828125 -1.90625 Z M 2.828125 -1.90625 "/></g></g></g><g fill="#e50914" fill-opacity="1"><g transform="translate(34.058076, 30.118679)"><g><path d="M 6.4375 -14.609375 L 6.4375 -12.46875 C 7.363281 -14 8.84375 -14.765625 10.875 -14.765625 C 12.539062 -14.765625 13.894531 -14.207031 14.9375 -13.09375 C 15.976562 -11.976562 16.5 -10.457031 16.5 -8.53125 L 16.5 0 L 12.046875 0 L 12.046875 -7.9375 C 12.046875 -8.875 11.796875 -9.597656 11.296875 -10.109375 C 10.796875 -10.628906 10.109375 -10.890625 9.234375 -10.890625 C 8.367188 -10.890625 7.6875 -10.628906 7.1875 -10.109375 C 6.6875 -9.597656 6.4375 -8.875 6.4375 -7.9375 L 6.4375 0 L 1.96875 0 L 1.96875 -14.609375 Z M 6.4375 -14.609375 "/></g></g></g></g></g></g><g clip-path="url(#a9cf3ef2c5)"><g transform="matrix(1, 0, 0, 1, 82, -0.000000000000001478)"><g clip-path="url(#29a236e853)"><g fill="#e50914" fill-opacity="1"><g transform="translate(1.194915, 32.264852)"><g><path d="M 15.046875 0 L 13.921875 -3.40625 L 6.640625 -3.40625 L 5.515625 0 L 0.265625 0 L 7.3125 -20.34375 L 13.3125 -20.34375 L 20.34375 0 Z M 7.890625 -7.171875 L 12.6875 -7.171875 L 10.28125 -14.390625 Z M 7.890625 -7.171875 "/></g></g></g><g clip-path="url(#7af20301fe)"><g fill="#e50914" fill-opacity="1"><g transform="translate(20.058681, 32.264852)"><g><path d="M 6.40625 -2.703125 C 6.40625 -1.941406 6.144531 -1.300781 5.625 -0.78125 C 5.113281 -0.257812 4.476562 0 3.71875 0 C 2.957031 0 2.316406 -0.257812 1.796875 -0.78125 C 1.273438 -1.300781 1.015625 -1.941406 1.015625 -2.703125 C 1.015625 -3.460938 1.273438 -4.101562 1.796875 -4.625 C 2.316406 -5.144531 2.957031 -5.40625 3.71875 -5.40625 C 4.476562 -5.40625 5.113281 -5.144531 5.625 -4.625 C 6.144531 -4.101562 6.40625 -3.460938 6.40625 -2.703125 Z M 6.40625 -2.703125 "/></g></g></g></g></g></g></g></svg>