<svg xmlns="http://www.w3.org/2000/svg" xmlns:xlink="http://www.w3.org/1999/xlink" width="200" zoomAndPan="magnify" viewBox="0 0 150 37.5" height="50" preserveAspectRatio="xMidYMid meet" version="1.0"><defs><g/></defs><g fill="#e50914" fill-opacity="1"><g transform="translate(9.30613, 26.64373)"><g><path d="M 1.5 -0.1875 L -0.140625 -13.484375 L 5.609375 -14.1875 C 7.015625 -14.363281 8.164062 -14.191406 9.0625 -13.671875 C 9.96875 -13.148438 10.492188 -12.320312 10.640625 -11.1875 C 10.804688 -9.851562 10.242188 -8.84375 8.953125 -8.15625 C 9.835938 -8.019531 10.519531 -7.703125 11 -7.203125 C 11.476562 -6.710938 11.765625 -6.085938 11.859375 -5.328125 C 11.953125 -4.554688 11.835938 -3.859375 11.515625 -3.234375 C 11.191406 -2.617188 10.6875 -2.109375 10 -1.703125 C 9.3125 -1.304688 8.472656 -1.046875 7.484375 -0.921875 Z M 5.578125 -11.96875 L 2.6875 -11.609375 L 3.078125 -8.421875 L 5.96875 -8.78125 C 6.707031 -8.875 7.265625 -9.078125 7.640625 -9.390625 C 8.015625 -9.710938 8.171875 -10.140625 8.109375 -10.671875 C 7.972656 -11.734375 7.128906 -12.164062 5.578125 -11.96875 Z M 6.5625 -6.640625 L 3.359375 -6.234375 L 3.796875 -2.703125 L 7 -3.109375 C 8.632812 -3.304688 9.378906 -3.992188 9.234375 -5.171875 C 9.160156 -5.753906 8.894531 -6.164062 8.4375 -6.40625 C 7.988281 -6.65625 7.363281 -6.734375 6.5625 -6.640625 Z M 6.5625 -6.640625 "/></g></g></g><g fill="#e50914" fill-opacity="1"><g transform="translate(22.239673, 25.040392)"><g><path d="M 1.515625 -0.140625 L 0.234375 -13.46875 L 5.671875 -14 C 7.304688 -14.15625 8.613281 -13.890625 9.59375 -13.203125 C 10.582031 -12.515625 11.140625 -11.503906 11.265625 -10.171875 C 11.359375 -9.222656 11.191406 -8.382812 10.765625 -7.65625 C 10.347656 -6.925781 9.742188 -6.359375 8.953125 -5.953125 L 12.734375 -1.234375 L 9.71875 -0.9375 L 6.34375 -5.28125 L 3.6875 -5.015625 L 4.125 -0.390625 Z M 3.46875 -7.265625 L 5.953125 -7.515625 C 6.953125 -7.609375 7.664062 -7.863281 8.09375 -8.28125 C 8.519531 -8.695312 8.695312 -9.25 8.625 -9.9375 C 8.5625 -10.644531 8.28125 -11.140625 7.78125 -11.421875 C 7.289062 -11.710938 6.546875 -11.8125 5.546875 -11.71875 L 3.0625 -11.46875 Z M 3.46875 -7.265625 "/></g></g></g><g fill="#e50914" fill-opacity="1"><g transform="translate(35.191189, 23.828233)"><g><path d="M 4.125 -0.3125 L 1.515625 -0.109375 L 0.484375 -13.453125 L 3.09375 -13.65625 Z M 4.125 -0.3125 "/></g></g></g><g fill="#e50914" fill-opacity="1"><g transform="translate(40.692366, 23.364761)"><g><path d="M 10.546875 -0.59375 L 9.265625 -3.578125 L 3.875 -3.28125 L 2.9375 -0.171875 L 0.265625 -0.015625 L 4.671875 -13.6875 L 7.375 -13.84375 L 13.328125 -0.765625 Z M 4.5625 -5.578125 L 8.328125 -5.78125 L 6.140625 -10.859375 Z M 4.5625 -5.578125 "/></g></g></g><g fill="#e50914" fill-opacity="1"><g transform="translate(54.072879, 22.591297)"><g><path d="M 1.515625 -0.046875 L 1.140625 -13.4375 L 3.6875 -13.5 L 10.59375 -4.296875 L 10.328125 -13.6875 L 12.875 -13.75 L 13.25 -0.359375 L 10.703125 -0.296875 L 3.796875 -9.5 L 4.0625 -0.109375 Z M 1.515625 -0.046875 "/></g></g></g><g fill="#e50914" fill-opacity="1"><g transform="translate(68.691434, 22.236693)"><g/></g></g><g fill="#e50914" fill-opacity="1"><g transform="translate(72.912192, 22.158942)"><g><path d="M 10.5625 0.109375 L 9.484375 -2.953125 L 4.078125 -3 L 2.9375 0.03125 L 0.265625 0 L 5.59375 -13.328125 L 8.296875 -13.3125 L 13.34375 0.140625 Z M 4.9375 -5.265625 L 8.703125 -5.21875 L 6.859375 -10.40625 Z M 4.9375 -5.265625 "/></g></g></g><g fill="#e50914" fill-opacity="1"><g transform="translate(86.321017, 22.294433)"><g><path d="M 1.078125 -6.671875 C 1.128906 -8.023438 1.445312 -9.21875 2.03125 -10.25 C 2.613281 -11.289062 3.398438 -12.085938 4.390625 -12.640625 C 5.378906 -13.203125 6.507812 -13.457031 7.78125 -13.40625 C 8.925781 -13.363281 9.890625 -13.125 10.671875 -12.6875 C 11.460938 -12.257812 12.085938 -11.679688 12.546875 -10.953125 C 13.015625 -10.222656 13.320312 -9.40625 13.46875 -8.5 L 10.765625 -8.609375 C 10.640625 -9.335938 10.3125 -9.921875 9.78125 -10.359375 C 9.25 -10.796875 8.550781 -11.03125 7.6875 -11.0625 C 6.9375 -11.09375 6.269531 -10.929688 5.6875 -10.578125 C 5.101562 -10.222656 4.640625 -9.703125 4.296875 -9.015625 C 3.953125 -8.328125 3.765625 -7.507812 3.734375 -6.5625 C 3.691406 -5.613281 3.816406 -4.78125 4.109375 -4.0625 C 4.398438 -3.351562 4.820312 -2.800781 5.375 -2.40625 C 5.925781 -2.007812 6.578125 -1.796875 7.328125 -1.765625 C 8.191406 -1.734375 8.910156 -1.910156 9.484375 -2.296875 C 10.066406 -2.679688 10.445312 -3.210938 10.625 -3.890625 L 13.296875 -3.78125 C 13.078125 -2.90625 12.707031 -2.128906 12.1875 -1.453125 C 11.664062 -0.785156 10.992188 -0.269531 10.171875 0.09375 C 9.359375 0.46875 8.378906 0.632812 7.234375 0.59375 C 5.960938 0.539062 4.851562 0.195312 3.90625 -0.4375 C 2.96875 -1.070312 2.25 -1.925781 1.75 -3 C 1.25 -4.082031 1.023438 -5.304688 1.078125 -6.671875 Z M 1.078125 -6.671875 "/></g></g></g><g fill="#e50914" fill-opacity="1"><g transform="translate(99.978732, 22.831939)"><g><path d="M 1.515625 0.09375 L 2.390625 -13.265625 L 12.03125 -12.625 L 11.890625 -10.34375 L 4.859375 -10.8125 L 4.640625 -7.6875 L 11.4375 -7.234375 L 11.296875 -4.9375 L 4.5 -5.390625 L 4.28125 -2.03125 L 11.40625 -1.5625 L 11.25 0.734375 Z M 1.515625 0.09375 "/></g></g></g><g fill="#e50914" fill-opacity="1"><g transform="translate(112.067685, 23.618352)"><g><path d="M 1.515625 0.140625 L 2.75 -13.1875 L 8.515625 -12.65625 C 9.921875 -12.53125 11.007812 -12.117188 11.78125 -11.421875 C 12.5625 -10.722656 12.898438 -9.800781 12.796875 -8.65625 C 12.671875 -7.320312 11.898438 -6.453125 10.484375 -6.046875 C 11.316406 -5.722656 11.914062 -5.269531 12.28125 -4.6875 C 12.644531 -4.101562 12.789062 -3.429688 12.71875 -2.671875 C 12.65625 -1.890625 12.394531 -1.234375 11.9375 -0.703125 C 11.488281 -0.171875 10.882812 0.210938 10.125 0.453125 C 9.375 0.703125 8.503906 0.78125 7.515625 0.6875 Z M 8 -10.5 L 5.109375 -10.765625 L 4.8125 -7.578125 L 7.703125 -7.3125 C 8.453125 -7.238281 9.039062 -7.316406 9.46875 -7.546875 C 9.90625 -7.773438 10.144531 -8.15625 10.1875 -8.6875 C 10.289062 -9.75 9.5625 -10.351562 8 -10.5 Z M 7.828125 -5.078125 L 4.609375 -5.375 L 4.28125 -1.828125 L 7.5 -1.53125 C 9.132812 -1.375 10.003906 -1.890625 10.109375 -3.078125 C 10.171875 -3.660156 10.003906 -4.117188 9.609375 -4.453125 C 9.222656 -4.796875 8.628906 -5.003906 7.828125 -5.078125 Z M 7.828125 -5.078125 "/></g></g></g><g fill="#e50914" fill-opacity="1"><g transform="translate(125.032594, 24.79621)"><g><path d="M 7.484375 1.234375 C 6.515625 1.109375 5.640625 0.820312 4.859375 0.375 C 4.078125 -0.0703125 3.421875 -0.644531 2.890625 -1.34375 C 2.367188 -2.039062 1.992188 -2.832031 1.765625 -3.71875 C 1.546875 -4.601562 1.5 -5.550781 1.625 -6.5625 C 1.75 -7.5625 2.023438 -8.460938 2.453125 -9.265625 C 2.878906 -10.078125 3.429688 -10.757812 4.109375 -11.3125 C 4.785156 -11.863281 5.554688 -12.257812 6.421875 -12.5 C 7.285156 -12.75 8.203125 -12.8125 9.171875 -12.6875 C 10.160156 -12.570312 11.046875 -12.289062 11.828125 -11.84375 C 12.609375 -11.40625 13.257812 -10.835938 13.78125 -10.140625 C 14.3125 -9.441406 14.691406 -8.644531 14.921875 -7.75 C 15.148438 -6.863281 15.203125 -5.921875 15.078125 -4.921875 C 14.953125 -3.910156 14.671875 -3.003906 14.234375 -2.203125 C 13.804688 -1.398438 13.253906 -0.722656 12.578125 -0.171875 C 11.898438 0.378906 11.128906 0.78125 10.265625 1.03125 C 9.398438 1.28125 8.472656 1.347656 7.484375 1.234375 Z M 7.765625 -1.109375 C 8.578125 -1.015625 9.316406 -1.117188 9.984375 -1.421875 C 10.648438 -1.734375 11.195312 -2.21875 11.625 -2.875 C 12.050781 -3.53125 12.320312 -4.316406 12.4375 -5.234375 C 12.539062 -6.140625 12.460938 -6.960938 12.203125 -7.703125 C 11.953125 -8.441406 11.539062 -9.046875 10.96875 -9.515625 C 10.394531 -9.984375 9.703125 -10.265625 8.890625 -10.359375 C 8.109375 -10.460938 7.382812 -10.351562 6.71875 -10.03125 C 6.0625 -9.71875 5.507812 -9.234375 5.0625 -8.578125 C 4.625 -7.921875 4.351562 -7.140625 4.25 -6.234375 C 4.132812 -5.316406 4.210938 -4.488281 4.484375 -3.75 C 4.753906 -3.007812 5.171875 -2.410156 5.734375 -1.953125 C 6.304688 -1.492188 6.984375 -1.210938 7.765625 -1.109375 Z M 7.765625 -1.109375 "/></g></g></g></svg>